<mxfile host="app.diagrams.net" agent="Mozilla/5.0 (Windows NT 10.0; Win64; x64) AppleWebKit/537.36 (KHTML, like Gecko) Chrome/140.0.0.0 Safari/537.36 Edg/140.0.0.0" version="28.2.3">
  <diagram name="Page-1" id="rAhj7LirTJu0Knpa3Eja">
    <mxGraphModel dx="1034" dy="570" grid="1" gridSize="10" guides="1" tooltips="1" connect="1" arrows="1" fold="1" page="1" pageScale="1" pageWidth="850" pageHeight="1100" math="0" shadow="0">
      <root>
        <mxCell id="0" />
        <mxCell id="1" parent="0" />
        <mxCell id="V-Nd7SEdYxguwwEOcXz4-1" value="bắt đầu" style="ellipse;whiteSpace=wrap;html=1;" vertex="1" parent="1">
          <mxGeometry x="340" y="80" width="120" height="80" as="geometry" />
        </mxCell>
        <mxCell id="V-Nd7SEdYxguwwEOcXz4-2" value="" style="endArrow=classic;html=1;rounded=0;" edge="1" parent="1" target="V-Nd7SEdYxguwwEOcXz4-3">
          <mxGeometry width="50" height="50" relative="1" as="geometry">
            <mxPoint x="399.5" y="160" as="sourcePoint" />
            <mxPoint x="399.5" y="230" as="targetPoint" />
          </mxGeometry>
        </mxCell>
        <mxCell id="V-Nd7SEdYxguwwEOcXz4-3" value="tìm kiếm món đồ" style="shape=parallelogram;perimeter=parallelogramPerimeter;whiteSpace=wrap;html=1;fixedSize=1;" vertex="1" parent="1">
          <mxGeometry x="340" y="210" width="120" height="60" as="geometry" />
        </mxCell>
        <mxCell id="V-Nd7SEdYxguwwEOcXz4-4" value="" style="endArrow=none;html=1;rounded=0;" edge="1" parent="1">
          <mxGeometry width="50" height="50" relative="1" as="geometry">
            <mxPoint x="240" y="240" as="sourcePoint" />
            <mxPoint x="340" y="239.5" as="targetPoint" />
          </mxGeometry>
        </mxCell>
        <mxCell id="V-Nd7SEdYxguwwEOcXz4-5" value="" style="endArrow=none;html=1;rounded=0;" edge="1" parent="1" target="V-Nd7SEdYxguwwEOcXz4-6">
          <mxGeometry width="50" height="50" relative="1" as="geometry">
            <mxPoint x="240" y="360" as="sourcePoint" />
            <mxPoint x="240" y="240" as="targetPoint" />
          </mxGeometry>
        </mxCell>
        <mxCell id="V-Nd7SEdYxguwwEOcXz4-6" value="hỏi nhân viên" style="rhombus;whiteSpace=wrap;html=1;" vertex="1" parent="1">
          <mxGeometry x="160" y="360" width="160" height="100" as="geometry" />
        </mxCell>
        <mxCell id="V-Nd7SEdYxguwwEOcXz4-7" value="" style="endArrow=none;html=1;rounded=0;" edge="1" parent="1">
          <mxGeometry width="50" height="50" relative="1" as="geometry">
            <mxPoint x="239.5" y="240" as="sourcePoint" />
            <mxPoint x="240" y="350" as="targetPoint" />
          </mxGeometry>
        </mxCell>
        <mxCell id="V-Nd7SEdYxguwwEOcXz4-8" value="có" style="text;html=1;align=center;verticalAlign=middle;resizable=0;points=[];autosize=1;strokeColor=none;fillColor=none;" vertex="1" parent="1">
          <mxGeometry x="160" y="208" width="40" height="30" as="geometry" />
        </mxCell>
        <mxCell id="V-Nd7SEdYxguwwEOcXz4-9" value="" style="endArrow=none;html=1;rounded=0;" edge="1" parent="1">
          <mxGeometry width="50" height="50" relative="1" as="geometry">
            <mxPoint x="320" y="409.5" as="sourcePoint" />
            <mxPoint x="380" y="409.5" as="targetPoint" />
          </mxGeometry>
        </mxCell>
        <mxCell id="V-Nd7SEdYxguwwEOcXz4-10" value="tồn tại món đồ không?" style="rhombus;whiteSpace=wrap;html=1;" vertex="1" parent="1">
          <mxGeometry x="385" y="360" width="155" height="90" as="geometry" />
        </mxCell>
        <mxCell id="V-Nd7SEdYxguwwEOcXz4-11" value="" style="endArrow=classic;html=1;rounded=0;" edge="1" parent="1">
          <mxGeometry width="50" height="50" relative="1" as="geometry">
            <mxPoint x="540" y="404.5" as="sourcePoint" />
            <mxPoint x="630" y="404.5" as="targetPoint" />
          </mxGeometry>
        </mxCell>
        <mxCell id="V-Nd7SEdYxguwwEOcXz4-12" value="tồn tại" style="rounded=0;whiteSpace=wrap;html=1;" vertex="1" parent="1">
          <mxGeometry x="630" y="380" width="130" height="70" as="geometry" />
        </mxCell>
        <mxCell id="V-Nd7SEdYxguwwEOcXz4-13" value="" style="endArrow=classic;html=1;rounded=0;" edge="1" parent="1" target="V-Nd7SEdYxguwwEOcXz4-14">
          <mxGeometry width="50" height="50" relative="1" as="geometry">
            <mxPoint x="694.5" y="450" as="sourcePoint" />
            <mxPoint x="694.5" y="530" as="targetPoint" />
          </mxGeometry>
        </mxCell>
        <mxCell id="V-Nd7SEdYxguwwEOcXz4-14" value="kết thúc" style="ellipse;whiteSpace=wrap;html=1;" vertex="1" parent="1">
          <mxGeometry x="635" y="510" width="120" height="80" as="geometry" />
        </mxCell>
        <mxCell id="V-Nd7SEdYxguwwEOcXz4-15" value="" style="endArrow=classic;html=1;rounded=0;" edge="1" parent="1" target="V-Nd7SEdYxguwwEOcXz4-16">
          <mxGeometry width="50" height="50" relative="1" as="geometry">
            <mxPoint x="239.5" y="460" as="sourcePoint" />
            <mxPoint x="240" y="530" as="targetPoint" />
          </mxGeometry>
        </mxCell>
        <mxCell id="V-Nd7SEdYxguwwEOcXz4-16" value="rời đi" style="rounded=0;whiteSpace=wrap;html=1;" vertex="1" parent="1">
          <mxGeometry x="180" y="500" width="120" height="60" as="geometry" />
        </mxCell>
        <mxCell id="V-Nd7SEdYxguwwEOcXz4-17" value="" style="endArrow=classic;html=1;rounded=0;entryX=0.025;entryY=0.62;entryDx=0;entryDy=0;entryPerimeter=0;" edge="1" parent="1" target="V-Nd7SEdYxguwwEOcXz4-14">
          <mxGeometry width="50" height="50" relative="1" as="geometry">
            <mxPoint x="305" y="560" as="sourcePoint" />
            <mxPoint x="385" y="560" as="targetPoint" />
          </mxGeometry>
        </mxCell>
        <mxCell id="V-Nd7SEdYxguwwEOcXz4-19" value="không" style="text;html=1;align=center;verticalAlign=middle;resizable=0;points=[];autosize=1;strokeColor=none;fillColor=none;" vertex="1" parent="1">
          <mxGeometry x="110" y="458" width="60" height="30" as="geometry" />
        </mxCell>
      </root>
    </mxGraphModel>
  </diagram>
</mxfile>
